<svg xmlns="http://www.w3.org/2000/svg" width="291" height="50" viewBox="0 0 291 50"><style>.a{fill:#36417B;}.b{fill:#AFB2B2;}</style><path d="M15.9 22.2c-1.1 0-2 0.5-2.7 1.4 -0.7 0.9-1 2.1-1 3.7 0 1.8 0.3 3.1 1 4 0.7 0.9 1.6 1.4 2.8 1.4 1.2 0 2.1-0.5 2.8-1.4 0.6-0.8 0.9-2.2 0.9-4 0-1.6-0.3-2.8-1-3.8C18.1 22.7 17.2 22.2 15.9 22.2z" class="a"/><path d="M25 0C11.2 0 0 11.2 0 25c0 13.8 11.2 25 25 25s25-11.2 25-25C50 11.2 38.8 0 25 0zM24.2 28.6c0 3.1-0.9 5.2-2.7 6.3 -1.8 1.1-3.8 1.6-5.9 1.6 -1.1 0-2.2-0.2-3.3-0.6 -1.1-0.4-2-1-2.7-1.8 -1.3-1.7-2-3.9-2-6.7 0-2.7 0.7-4.9 2-6.7 1.3-1.7 3-2.6 5.1-2.6 1.1 0 2.1 0.2 2.9 0.7 0.9 0.5 1.6 1.2 2.1 2v-5.3c0-0.6 0.2-1.1 0.7-1.6 0.4-0.4 1-0.7 1.6-0.7h2.2V28.6zM39.9 34.1c-0.7 0.8-1.5 1.4-2.7 1.8 -1.1 0.4-2.2 0.6-3.3 0.6 -2.1 0-4.1-0.5-5.9-1.6 -1.8-1.1-2.7-3.2-2.7-6.3V13.4h2.2c0.6 0 1.1 0.2 1.6 0.7 0.4 0.4 0.7 1 0.7 1.6v5.3c0.5-0.8 1.2-1.5 2.1-2 0.8-0.4 1.8-0.7 2.9-0.7 2.1 0 3.8 0.9 5.1 2.6 1.3 1.7 2 3.9 2 6.7C41.9 30.1 41.2 32.4 39.9 34.1z" class="a"/><path d="M33.7 22.1c-1.2 0-2.2 0.4-2.8 1.3 -0.7 0.9-1 2.2-1 3.8 0 1.8 0.3 3.2 0.9 4 0.7 0.9 1.6 1.4 2.8 1.4 1.2 0 2.2-0.5 2.8-1.4 0.7-0.9 1-2.3 1-4 0-1.6-0.3-2.8-1-3.7C35.7 22.6 34.8 22.1 33.7 22.1z" class="a"/><path d="M72.9 10.3h-8.4c-0.8 0-1.6 0.3-2.2 0.9 -0.6 0.6-0.9 1.3-0.9 2.2v26h9.9c2.8 0 4.8-0.2 6.2-0.6 1.4-0.4 2.7-1.1 4-2 1.5-1.1 2.7-2.8 3.6-4.9 0.8-2.1 1.2-4.4 1.2-7 0-4.8-1.1-8.5-3.3-11C80.7 11.4 77.4 10.3 72.9 10.3zM78.3 31.9c-1.3 1.5-3.3 2.2-6.1 2.2h-4.8V15.3h5.6c2.5 0 4.3 0.8 5.4 2.3 1.2 1.5 1.8 3.9 1.8 7.2C80.2 28.2 79.5 30.5 78.3 31.9zM97.1 16.3c-3.2 0-5.7 1-7.6 3.1 -1.8 2-2.6 4.8-2.6 8.5 0 3.8 0.9 6.7 2.7 8.7 1.8 2.1 4.3 3.1 7.6 3.1 2.7 0 4.9-0.6 6.6-1.9 1.8-1.2 2.9-3 3.6-5.4h-4.2c-0.7 0-1.2 0.1-1.6 0.4 -0.4 0.3-0.6 0.5-0.6 0.7 -0.2 0.2-0.3 0.3-0.5 0.5 -0.1 0.1-0.3 0.2-0.5 0.3 -0.7 0.4-1.5 0.6-2.5 0.6 -1.5 0-2.6-0.5-3.3-1.4 -0.8-0.8-1.2-2.1-1.3-3.9h14.7c0.1-0.1 0.1-0.3 0.1-0.6v-0.9c0-3.7-0.9-6.6-2.7-8.7C103.2 17.4 100.5 16.3 97.1 16.3zM93 25.8c0.1-1.5 0.5-2.6 1.3-3.4 0.8-0.8 1.8-1.2 3.1-1.2 1.4 0 2.4 0.4 3.1 1.2 0.7 0.7 1.1 1.9 1.2 3.4H93zM120.6 25.5c-0.2 0-0.5 0-0.7-0.1 -0.3-0.1-0.6-0.1-0.9-0.3 -2.9-0.6-4.4-1.4-4.4-2.3 0-0.7 0.3-1.2 0.8-1.5 0.6-0.3 1.4-0.5 2.5-0.5 1.2 0 2.1 0.3 2.8 0.8 0.2 0.2 0.5 0.5 0.7 0.7 0.6 1 1.4 1.4 2.5 1.4h3.7c-0.1-2.3-1-4.1-2.6-5.5 -1.8-1.3-4.1-1.9-7-1.9 -2.7 0-4.9 0.6-6.6 1.9 -1.6 1.4-2.5 3.2-2.5 5.3 0 1.7 0.6 3 1.7 4.1 1 1 3 1.9 6 2.6 0.5 0.2 1.3 0.3 2.3 0.5 2.4 0.5 3.6 1.3 3.6 2.3 0 0.7-0.3 1.2-1 1.6 -0.7 0.4-1.6 0.6-2.6 0.6 -1.4 0-2.5-0.3-3.4-0.8 -0.8-0.6-1.2-1.4-1.3-2.5h-5.8v0.3c0 2.5 0.8 4.4 2.5 5.7 1.6 1.3 4 1.9 7.2 1.9 3.4 0 5.9-0.6 7.6-1.9 1.8-1.4 2.7-3.3 2.7-5.7 0-1.7-0.5-3-1.6-4.1C125.5 27.1 123.5 26.3 120.6 25.5zM141.4 25.5l8.1-8.6h-7.1l-7.2 8.3V13c0-0.7-0.3-1.4-0.8-1.9 -0.6-0.6-1.2-0.8-2-0.8h-3.1v29.1h5.9v-8.5c0-0.5 0.3-0.8 0.9-1 0.6-0.2 1.4 0.4 2.2 1.9l4.2 7.6h7.1L141.4 25.5z" fill="#36417A"/><path d="M169.1 19.7c-1.7-2.2-3.9-3.3-6.5-3.3 -1.5 0-2.7 0.3-3.7 0.8 -1.2 0.7-2.1 1.5-2.7 2.6v-6.7c0-0.8-0.3-1.5-0.8-2 -0.6-0.6-1.2-0.8-2-0.8h-2.9v19.3c0 4 1.2 6.7 3.5 8.1 2.3 1.4 4.8 2.1 7.5 2.1 1.4 0 2.8-0.2 4.3-0.7 1.4-0.5 2.6-1.3 3.4-2.3 1.7-2.2 2.5-5 2.5-8.5C171.6 24.7 170.8 21.9 169.1 19.7zM164.5 33.1c-0.8 1.2-2.1 1.8-3.6 1.8 -1.5 0-2.7-0.6-3.5-1.8 -0.8-1.1-1.2-2.8-1.2-5.1 0-2 0.4-3.6 1.3-4.8 0.8-1.1 2.1-1.7 3.6-1.7 1.5 0 2.6 0.6 3.5 1.8 0.8 1.1 1.3 2.7 1.3 4.7C165.8 30.2 165.4 31.9 164.5 33.1z" class="b"/><path d="M191.4 21.5c-1-2.1-2.6-3.5-4.7-4.4 -1.9-0.7-3.9-0.9-6.3-0.5 -2.3 0.3-4.2 1.3-5.7 3 -0.9 1-1.6 2.3-2 3.8 -0.4 1.5-0.6 3-0.6 4.6 0 1.9 0.3 3.6 0.8 5.4 0.5 1.7 1.4 3.1 2.5 4.1 1.1 1 2.6 1.7 4.5 2.2 1.9 0.4 3.8 0.4 5.6-0.1 2.1-0.5 3.8-1.6 5.2-3.5 0.6-0.9 1.1-2 1.5-3.3 0.4-1.3 0.6-2.8 0.6-4.6C192.9 25.5 192.4 23.3 191.4 21.5zM186 32.9c-0.7 1-1.5 1.6-2.3 1.9 -0.9 0.3-1.7 0.2-2.6-0.1 -0.8-0.3-1.4-0.7-1.8-1.1 -0.8-1-1.3-2.8-1.4-5.4 -0.1-2.6 0.4-4.5 1.6-5.8 0.4-0.4 1-0.7 1.9-1 0.8-0.3 1.7-0.2 2.5 0 0.8 0.3 1.6 0.9 2.2 1.9 0.6 1 1 2.5 1 4.6C187 30.3 186.7 31.9 186 32.9z" class="b"/><path d="M212.5 21.5c-1-2.1-2.6-3.5-4.7-4.4 -1.9-0.7-3.9-0.9-6.2-0.5 -2.3 0.3-4.2 1.3-5.7 3 -0.9 1-1.6 2.3-2 3.8 -0.4 1.5-0.6 3-0.6 4.6 0 1.9 0.3 3.6 0.8 5.4 0.5 1.7 1.4 3.1 2.5 4.1 1.1 1 2.6 1.7 4.5 2.2 1.9 0.4 3.8 0.4 5.6-0.1 2.1-0.5 3.8-1.6 5.2-3.5 0.6-0.9 1.1-2 1.5-3.3 0.4-1.3 0.6-2.8 0.6-4.6C214 25.5 213.5 23.3 212.5 21.5zM207.1 32.9c-0.7 1-1.4 1.6-2.3 1.9 -0.9 0.3-1.7 0.2-2.6-0.1 -0.8-0.3-1.4-0.7-1.8-1.1 -0.8-1-1.3-2.8-1.4-5.4 -0.1-2.6 0.4-4.5 1.6-5.8 0.4-0.4 1-0.7 1.9-1 0.8-0.3 1.7-0.2 2.5 0 0.8 0.3 1.6 0.9 2.2 1.9 0.6 1 1 2.5 1 4.6C208.2 30.3 207.8 31.9 207.1 32.9z" class="b"/><path d="M235.1 16.9h-7.1l-7.2 8.3v-8.3h0v-3.8c0-0.7-0.3-1.4-0.8-1.9 -0.6-0.6-1.2-0.8-2-0.8h-3v29h5.9v-8.5c0-0.5 0.3-0.8 0.9-1 0.6-0.2 1.4 0.4 2.2 1.9l4.1 7.6h7.1l-8.1-13.8L235.1 16.9z" class="b"/><path d="M250.7 19.4c-1.9-2-4.5-3-7.9-3 -3.2 0-5.7 1-7.5 3.1 -1.7 2-2.6 4.8-2.6 8.4 0 3.8 0.9 6.7 2.7 8.7 1.8 2.1 4.3 3.1 7.5 3.1 2.6 0 4.8-0.6 6.6-1.9 1.7-1.2 2.9-3 3.5-5.4h-4.2c-0.7 0-1.2 0.1-1.6 0.4 -0.4 0.3-0.6 0.5-0.6 0.7 -0.2 0.2-0.3 0.3-0.5 0.5 -0.1 0.1-0.3 0.2-0.5 0.3 -0.7 0.4-1.5 0.6-2.4 0.6 -1.5 0-2.6-0.5-3.3-1.3 -0.8-0.8-1.2-2.1-1.3-3.9h14.6c0.1-0.1 0.1-0.3 0.1-0.6v-0.9C253.4 24.4 252.5 21.5 250.7 19.4zM238.7 25.8c0.1-1.5 0.5-2.6 1.3-3.4 0.8-0.8 1.8-1.2 3-1.2 1.4 0 2.4 0.4 3.1 1.2 0.7 0.7 1.1 1.9 1.2 3.4H238.7z" class="b"/><path d="M261.7 17.5c-1.4 0.4-2.7 1-3.8 1.9 -1.1 0.9-2 2.1-2.7 3.6 -0.6 1.5-1 3.3-1 5.5v10.9h5.9V27.8c0-1.7 0.4-2.9 1.2-3.7 0.8-0.8 2-1.2 3.6-1.2h1.9v-6h-0.8C264.6 16.9 263.1 17.1 261.7 17.5z" class="b"/><path d="M286.4 28.1c-1.1-1-3.1-1.8-6-2.5 -0.2 0-0.5 0-0.7-0.1 -0.3-0.1-0.5-0.1-0.9-0.3 -2.9-0.6-4.4-1.4-4.4-2.3 0-0.7 0.3-1.2 0.8-1.5 0.6-0.3 1.4-0.5 2.5-0.5 1.2 0 2.1 0.3 2.8 0.8 0.2 0.2 0.4 0.5 0.7 0.7 0.6 1 1.4 1.4 2.5 1.4h3.6c-0.1-2.2-1-4.1-2.6-5.5 -1.7-1.3-4.1-1.9-7-1.9 -2.7 0-4.9 0.6-6.6 1.9 -1.6 1.4-2.4 3.2-2.4 5.3 0 1.7 0.6 3 1.7 4 1 1 3 1.9 6 2.6 0.5 0.2 1.3 0.3 2.3 0.5 2.4 0.5 3.5 1.3 3.5 2.3 0 0.7-0.3 1.2-1 1.6 -0.7 0.4-1.6 0.6-2.6 0.6 -1.4 0-2.5-0.3-3.4-0.8 -0.8-0.6-1.2-1.4-1.3-2.5h-5.7v0.3c0 2.5 0.8 4.4 2.4 5.6 1.6 1.3 4 1.9 7.2 1.9 3.4 0 5.9-0.6 7.6-1.9 1.8-1.3 2.7-3.3 2.7-5.7C288 30.5 287.5 29.1 286.4 28.1z" class="b"/></svg>
